<svg width="30" height="24" fill="none" xmlns="http://www.w3.org/2000/svg"><g clip-path="url(#a)"><path d="M17.221 8.384c0 .238-.043.461-.13.67a1.617 1.617 0 0 1-.374.548 1.813 1.813 0 0 1-.548.365 1.794 1.794 0 0 1-.67.14H6.427l2.444 2.435c.163.156.287.342.374.556.087.215.13.435.13.661 0 .238-.043.461-.13.67a1.617 1.617 0 0 1-.374.548 1.812 1.812 0 0 1-.547.365 1.68 1.68 0 0 1-1.322.009 1.812 1.812 0 0 1-.566-.374L1.087 9.62a1.785 1.785 0 0 1-.409-.591 1.913 1.913 0 0 1-.121-.713c0-.226.049-.438.147-.635.1-.197.227-.374.383-.53l5.35-5.358a1.744 1.744 0 0 1 1.226-.504c.237 0 .46.046.67.138.208.093.388.218.538.374.151.157.273.34.366.548a1.68 1.68 0 0 1 .009 1.322 1.712 1.712 0 0 1-.375.557L6.427 6.662H15.5c.238 0 .46.044.67.13.208.088.391.212.548.375.156.162.278.345.365.548.087.203.133.426.14.67Z" fill="#EEEBE5"/></g><g clip-path="url(#b)"><path d="M12.779 15.053c0-.238.043-.46.13-.67.087-.208.212-.391.374-.547a1.81 1.81 0 0 1 .548-.366c.203-.087.427-.133.67-.139h9.072l-2.445-2.435a1.599 1.599 0 0 1-.373-.557 1.746 1.746 0 0 1-.13-.661c0-.238.043-.46.13-.67.087-.208.211-.391.373-.548.163-.156.346-.278.549-.365.202-.087.426-.133.67-.14.225 0 .443.044.651.131.21.087.398.212.566.374l5.349 5.358c.191.191.327.389.409.591.08.203.121.441.121.714a1.4 1.4 0 0 1-.148.635 2.028 2.028 0 0 1-.382.53l-5.35 5.358a1.744 1.744 0 0 1-1.226.505 1.695 1.695 0 0 1-1.209-.513 1.888 1.888 0 0 1-.365-.549 1.68 1.68 0 0 1-.009-1.322c.088-.209.212-.394.375-.556l2.444-2.436H14.5c-.238 0-.46-.043-.67-.13a1.617 1.617 0 0 1-.548-.374 1.813 1.813 0 0 1-.365-.548 1.792 1.792 0 0 1-.14-.67Z" fill="#EEEBE5"/></g><defs><clipPath id="a"><path fill="#fff" d="M0 0h17.813v17.813H0z"/></clipPath><clipPath id="b"><path fill="#fff" transform="rotate(180 15 11.719)" d="M0 0h17.813v17.813H0z"/></clipPath></defs></svg>