<svg width="29" height="21"><path d="M28.29 6.125h-3.227l-.93-2.242A6.105 6.105 0 0 0 18.445 0H11.5a6.105 6.105 0 0 0-5.688 3.883l-.93 2.242H1.657c-.437 0-.765.438-.656.82l.328 1.313c.055.328.328.492.656.492h1.094a3.409 3.409 0 0 0-1.203 2.625V14c0 .93.328 1.695.875 2.297v2.953c0 .984.766 1.75 1.75 1.75h1.75C7.18 21 8 20.234 8 19.25V17.5h14v1.75c0 .984.766 1.75 1.75 1.75h1.75c.93 0 1.75-.766 1.75-1.75v-2.953c.492-.602.875-1.367.875-2.297v-2.625c0-1.04-.492-1.969-1.258-2.625h1.149c.273 0 .547-.164.601-.492l.328-1.313c.11-.383-.218-.82-.656-.82Zm-19.25-.93C9.476 4.156 10.405 3.5 11.5 3.5h6.945c1.094 0 2.024.656 2.461 1.695L22 7.875H8l1.04-2.68ZM6.25 14c-1.094 0-1.75-.656-1.75-1.75 0-1.04.656-1.75 1.75-1.75 1.04 0 2.625 1.586 2.625 2.625 0 1.04-1.586.875-2.625.875Zm17.5 0c-1.094 0-2.625.164-2.625-.875 0-1.04 1.531-2.625 2.625-2.625 1.04 0 1.75.71 1.75 1.75 0 1.094-.71 1.75-1.75 1.75Z" fill="#DB3069"/></svg>