<svg width="29" height="12" fill="none" xmlns="http://www.w3.org/2000/svg"><path d="M4.08 11.256c2.689 0 4.285-2.102 4.285-5.669 0-3.5-1.699-5.42-4.226-5.42C1.84.167.214 1.713.214 3.874c0 2.028 1.464 3.508 3.479 3.508 1.237 0 2.24-.571 2.739-1.575h.124c-.022 2.483-.908 3.904-2.453 3.904-.909 0-1.634-.498-1.86-1.304H.36c.308 1.721 1.787 2.85 3.72 2.85Zm.067-5.332c-1.23 0-2.08-.864-2.08-2.11 0-1.193.893-2.108 2.087-2.108 1.194 0 2.087.93 2.087 2.146 0 1.2-.871 2.072-2.094 2.072Zm7.37-.153c.695 0 1.171-.491 1.171-1.136 0-.652-.476-1.135-1.171-1.135-.689 0-1.172.483-1.172 1.135 0 .645.483 1.136 1.171 1.136Zm0 5.375c.695 0 1.171-.49 1.171-1.142 0-.645-.476-1.135-1.171-1.135-.689 0-1.172.49-1.172 1.135 0 .652.483 1.143 1.171 1.143ZM19.604 11h1.81V8.971h1.427v-1.56h-1.428V.431h-2.666a140.755 140.755 0 0 0-4.306 6.995V8.97h5.163V11Zm-3.413-3.655a115.235 115.235 0 0 1 3.34-5.405h.102v5.515h-3.442v-.11ZM26.93 11h1.89V.431h-1.883l-2.76 1.941v1.78l2.628-1.86h.125V11Z" fill="#000"/></svg>