<svg width="20" height="24"><path d="M9.953.75c-.14-.984-2.11-.984-2.25.047v6.61c-.047.14-.703.14-.75 0C6.906 6.233 6.625.89 6.578.75c-.14-.984-2.062-.984-2.203 0C4.328.89 4.047 6.234 4 7.406c-.047.14-.703.14-.75 0V.796C3.11-.233 1.14-.233 1 .75c-.047.188-.75 4.406-.75 6 0 2.484 1.266 4.219 3.188 4.922l-.563 11.156C2.828 23.484 3.344 24 4 24h3c.61 0 1.125-.516 1.125-1.172l-.61-11.156c1.923-.703 3.235-2.438 3.235-4.922 0-1.594-.75-5.813-.797-6Zm5.625 13.36-.703 8.671C14.781 23.438 15.344 24 16 24h2.625a1.11 1.11 0 0 0 1.125-1.125V1.125A1.14 1.14 0 0 0 18.625 0c-3.89 0-10.406 8.39-3.047 14.11Z" fill="#FF4B3E"/></svg>