<svg width="30" height="22"><path d="M4.875 3.5h-2.25A1.11 1.11 0 0 0 1.5 4.625V9.5H.375A.37.37 0 0 0 0 9.875v2.25c0 .234.14.375.375.375H1.5v4.875c0 .656.469 1.125 1.125 1.125h2.25A1.11 1.11 0 0 0 6 17.375V4.625A1.14 1.14 0 0 0 4.875 3.5Zm24.75 6H28.5V4.625A1.14 1.14 0 0 0 27.375 3.5h-2.25A1.11 1.11 0 0 0 24 4.625v12.75c0 .656.469 1.125 1.125 1.125h2.25a1.11 1.11 0 0 0 1.125-1.125V12.5h1.125a.37.37 0 0 0 .375-.375v-2.25a.403.403 0 0 0-.375-.375Zm-8.25-9h-2.25A1.11 1.11 0 0 0 18 1.625V9.5h-6V1.625A1.14 1.14 0 0 0 10.875.5h-2.25A1.11 1.11 0 0 0 7.5 1.625v18.75c0 .656.469 1.125 1.125 1.125h2.25A1.11 1.11 0 0 0 12 20.375V12.5h6v7.875c0 .656.469 1.125 1.125 1.125h2.25a1.11 1.11 0 0 0 1.125-1.125V1.625A1.14 1.14 0 0 0 21.375.5Z" fill="#F58F29"/></svg>