<svg width="25" height="21"><path d="m23.984 5.148-2.539-4.062A1.282 1.282 0 0 0 20.391.5H4.609c-.43 0-.859.234-1.093.586l-2.5 4.062c-1.329 2.11-.157 5 2.265 5.313.196.039.352.039.547.039a3.86 3.86 0 0 0 2.89-1.29A3.86 3.86 0 0 0 9.61 10.5a3.838 3.838 0 0 0 2.852-1.29 3.924 3.924 0 0 0 2.89 1.29 3.86 3.86 0 0 0 2.891-1.29 3.86 3.86 0 0 0 2.89 1.29c.196 0 .352 0 .548-.04 2.422-.312 3.593-3.202 2.304-5.312Zm-2.851 6.602c-.39 0-.781-.04-1.133-.117V15.5H5v-3.867c-.39.078-.781.117-1.172.117-.234 0-.469 0-.703-.04-.234-.038-.43-.077-.625-.116v7.656c0 .703.547 1.25 1.25 1.25h17.5c.664 0 1.25-.547 1.25-1.25v-7.656c-.234.039-.43.117-.664.117-.234.039-.469.039-.703.039Z" fill="#9BC53D"/></svg>