<svg width="24" height="24" fill="none" xmlns="http://www.w3.org/2000/svg"><g clip-path="url(#a)"><path d="M12 1.02c.992 0 1.976.03 2.953.093.977.063 1.957.2 2.942.41.976.204 1.859.547 2.648 1.032.789.484 1.46 1.148 2.016 1.992A8.155 8.155 0 0 1 23.66 7.16c.219.945.332 1.89.34 2.836 0 .766-.059 1.488-.176 2.168a8.24 8.24 0 0 1-.586 1.945 7.668 7.668 0 0 1-1.054 1.723 9.372 9.372 0 0 1-1.57 1.512 743.564 743.564 0 0 1-3.587 2.73 738.71 738.71 0 0 0-3.586 2.73.892.892 0 0 1-.55.177.73.73 0 0 1-.352-.083 1.203 1.203 0 0 1-.281-.21.769.769 0 0 1-.188-.305 1.423 1.423 0 0 1-.07-.363v-3.305H9.023c-.476 0-.96-.02-1.453-.059-.492-.039-.984-.11-1.476-.21a8.49 8.49 0 0 1-1.418-.423 6.772 6.772 0 0 1-1.29-.68 7.113 7.113 0 0 1-1.558-1.452 7.55 7.55 0 0 1-1.043-1.782 10.276 10.276 0 0 1-.598-1.992A10.557 10.557 0 0 1 0 9.997c0-.97.11-1.915.328-2.837a8.022 8.022 0 0 1 1.149-2.613c.562-.852 1.226-1.516 1.992-1.992.765-.477 1.644-.82 2.636-1.032a20.937 20.937 0 0 1 2.93-.398A52.882 52.882 0 0 1 12 1.02ZM12.75 12a.72.72 0 0 0 .527-.223.72.72 0 0 0 .223-.527.72.72 0 0 0-.223-.527.72.72 0 0 0-.527-.223h-6a.72.72 0 0 0-.527.223.72.72 0 0 0-.223.527.72.72 0 0 0 .223.527.72.72 0 0 0 .527.223h6Zm4.453-3a.812.812 0 0 0 .563-.2c.148-.132.226-.316.234-.55a.687.687 0 0 0-.223-.54.874.874 0 0 0-.574-.21H6.797a.84.84 0 0 0-.563.2c-.156.132-.234.316-.234.55a.67.67 0 0 0 .234.54.891.891 0 0 0 .563.21h10.406Z" fill="#EEECE5"/></g><defs><clipPath id="a"><path fill="#fff" d="M0 0h24v24H0z"/></clipPath></defs></svg>