<svg width="28" height="28" fill="none" xmlns="http://www.w3.org/2000/svg"><g clip-path="url(#a)"><path d="M3 12.002c.422 0 .812.078 1.171.234.36.156.672.367.937.633.265.265.484.585.656.96.172.375.25.765.234 1.171 0 .422-.078.812-.234 1.171-.156.36-.367.672-.633.937a3.265 3.265 0 0 1-.96.656c-.375.172-.765.25-1.171.234-.422 0-.812-.078-1.171-.234a3.003 3.003 0 0 1-.937-.633 3.266 3.266 0 0 1-.656-.96A2.54 2.54 0 0 1 .002 15c0-.422.078-.812.234-1.171.156-.36.367-.672.633-.937.265-.265.585-.484.96-.656.375-.172.765-.25 1.171-.234Zm10.136 0c.421 0 .812.078 1.17.234.36.156.672.367.938.633.265.265.484.585.655.96.172.375.25.765.235 1.171 0 .422-.078.812-.235 1.171-.156.36-.366.672-.632.937a3.263 3.263 0 0 1-.96.656c-.375.172-.765.25-1.171.234-.422 0-.812-.078-1.171-.234a3.004 3.004 0 0 1-.937-.633 3.265 3.265 0 0 1-.656-.96A2.538 2.538 0 0 1 10.138 15c0-.422.078-.812.234-1.171.156-.36.367-.672.632-.937.266-.265.586-.484.96-.656.375-.172.766-.25 1.172-.234Zm10.135 0c.422 0 .812.078 1.171.234.36.156.672.367.937.633.266.265.484.585.656.96.172.375.25.765.234 1.171 0 .422-.078.812-.234 1.171-.156.36-.367.672-.632.937a3.263 3.263 0 0 1-.96.656c-.375.172-.766.25-1.172.234-.421 0-.812-.078-1.17-.234a3.004 3.004 0 0 1-.938-.633 3.267 3.267 0 0 1-.656-.96A2.54 2.54 0 0 1 20.273 15c0-.422.078-.812.234-1.171.156-.36.367-.672.633-.937.265-.265.585-.484.96-.656.375-.172.765-.25 1.171-.234Z" fill="#EEECE5"/></g><defs><clipPath id="a"><path fill="#fff" d="M0 0h28v28H0z"/></clipPath></defs></svg>