<svg width="27" height="22"><path d="M27 9.125A1.14 1.14 0 0 0 25.875 8h-3.188l-5.015-6.844a1.41 1.41 0 0 0-2.063-.328 1.41 1.41 0 0 0-.328 2.063L18.984 8H7.97l3.703-5.11a1.41 1.41 0 0 0-.328-2.062 1.41 1.41 0 0 0-2.063.328L4.266 8H1.125A1.11 1.11 0 0 0 0 9.125v.75C0 10.531.469 11 1.125 11H1.5l1.219 8.578c.14 1.125 1.078 1.922 2.203 1.922h17.11c1.124 0 2.062-.797 2.202-1.922L25.5 11h.375A1.11 1.11 0 0 0 27 9.875v-.75Zm-12.375 8.25A1.11 1.11 0 0 1 13.5 18.5c-.656 0-1.125-.469-1.125-1.125v-5.25c0-.61.469-1.125 1.125-1.125.61 0 1.125.516 1.125 1.125v5.25Zm5.25 0A1.11 1.11 0 0 1 18.75 18.5c-.656 0-1.125-.469-1.125-1.125v-5.25c0-.61.469-1.125 1.125-1.125.61 0 1.125.516 1.125 1.125v5.25Zm-10.5 0A1.11 1.11 0 0 1 8.25 18.5c-.656 0-1.125-.469-1.125-1.125v-5.25c0-.61.469-1.125 1.125-1.125.61 0 1.125.516 1.125 1.125v5.25Z" fill="#235789"/></svg>