<svg width="16" height="12" fill="none" xmlns="http://www.w3.org/2000/svg"><path fill-rule="evenodd" clip-rule="evenodd" d="M7.667 2.615c2.225 0 4.364.854 5.977 2.386a.31.31 0 0 0 .435-.003l1.16-1.17a.322.322 0 0 0-.002-.458C11.005-.682 4.329-.682.097 3.37a.323.323 0 0 0-.003.457l1.16 1.17a.31.31 0 0 0 .436.004 8.68 8.68 0 0 1 5.977-2.386Zm0 3.808c1.222 0 2.401.454 3.307 1.273a.312.312 0 0 0 .435-.005l1.16-1.17a.323.323 0 0 0-.005-.461 7.192 7.192 0 0 0-9.791 0 .323.323 0 0 0-.005.46l1.16 1.17c.119.12.312.123.434.006a4.929 4.929 0 0 1 3.305-1.273ZM9.99 8.985a.315.315 0 0 1-.094.23L7.89 11.239a.313.313 0 0 1-.445 0L5.439 9.216a.315.315 0 0 1 .01-.459 3.438 3.438 0 0 1 4.437 0c.064.059.102.14.103.228Z" fill="#000"/></svg>